<mxfile host="app.diagrams.net" modified="2021-10-22T19:25:59.365Z" agent="5.0 (Windows NT 10.0; Win64; x64) AppleWebKit/537.36 (KHTML, like Gecko) Chrome/95.0.4638.54 Safari/537.36" etag="kq336--6qtRgr2lQCGgF" version="15.5.8" type="github">
  <diagram id="sFd8a2O6-MpDUsLX3lZi" name="Page-1">
    <mxGraphModel dx="1422" dy="762" grid="1" gridSize="10" guides="1" tooltips="1" connect="1" arrows="1" fold="1" page="1" pageScale="1" pageWidth="850" pageHeight="1100" math="0" shadow="0">
      <root>
        <mxCell id="0" />
        <mxCell id="1" parent="0" />
        <mxCell id="6VPgUzRO6D01RCAoHINE-10" value="" style="edgeStyle=orthogonalEdgeStyle;rounded=0;orthogonalLoop=1;jettySize=auto;html=1;" edge="1" parent="1" source="6VPgUzRO6D01RCAoHINE-1" target="6VPgUzRO6D01RCAoHINE-9">
          <mxGeometry relative="1" as="geometry" />
        </mxCell>
        <mxCell id="6VPgUzRO6D01RCAoHINE-1" value="User" style="shape=umlActor;verticalLabelPosition=bottom;verticalAlign=top;html=1;outlineConnect=0;" vertex="1" parent="1">
          <mxGeometry x="130" y="70" width="30" height="60" as="geometry" />
        </mxCell>
        <mxCell id="6VPgUzRO6D01RCAoHINE-9" value="Receive recommendations" style="ellipse;whiteSpace=wrap;html=1;verticalAlign=top;" vertex="1" parent="1">
          <mxGeometry x="270" y="70" width="120" height="60" as="geometry" />
        </mxCell>
      </root>
    </mxGraphModel>
  </diagram>
</mxfile>
